<svg viewBox="0 0 800 600" height="1450" width="1950" xmlns="http://www.w3.org/2000/svg" version="1.1"><g transform-origin="center" transform="scale(1, 1) rotate(0)"><rect x="0" y="0" width="800" height="600" fill="#010510ff"></rect><linearGradient id="linear-gradient-r1"><stop offset="0%" stop-color="#d54401ff" stop-opacity="100%"></stop><stop offset="100%" stop-color="#f80242ff" stop-opacity="100%"></stop></linearGradient><filter x="-5%" y="-5%" width="110%" height="110%" filterUnits="objectBoundingBox" id="strokeStyle"><feTurbulence type="fractalNoise" baseFrequency="0.5" numOctaves="5" result="f1" stitchTiles="stitch"></feTurbulence><feColorMatrix type="matrix" values="0 0 0 0 0, 0 0 0 0 0, 0 0 0 0 0, 0 0 0 -1.5 1.5" result="f2"></feColorMatrix><feComposite operator="in" in2="f2b" in="SourceGraphic" result="f3"></feComposite><feTurbulence type="fractalNoise" baseFrequency="1.2" numOctaves="9" result="noise"></feTurbulence><feDisplacementMap xChannelSelector="R" yChannelSelector="G" scale="2.5" in="f3" result="f4"></feDisplacementMap></filter><g filter="url(#strokeStyle)"><path d="M 904.0343099639588 255.0343099639588 C869.4919574210211 423.0343099639588 568.0343099639588 777.7724749996324 400.0343099639588 759.0343099639588  C232.0343099639588 740.2961449282851 -60.666533650106 423.0343099639588 -103.9656900360412 255.0343099639588  C-147.2648464219764 87.0343099639588 232.0343099639588 -165.67386859898468 400.0343099639588 -248.9656900360412  C568.0343099639588 -332.25751147309774 938.5766625068965 87.0343099639588 904.0343099639588 255.0343099639588" fill="none" stroke-linecap="round" stroke="url(#linear-gradient-r1)" stroke-width="15.5" style="transform-origin: center center 0px; transform: scale(1) translate(500px, -9px); transition: all 0.4s cubic-bezier(0.16, 1, 0.3, 1) 0s;"></path><path d="M 841.0343099639588 240.03430996395883 C813.6601432303356 387.0343099639588 547.0343099639588 695.8839544208922 400.0343099639588 681.0343099639588  C253.0343099639588 666.1846655070253 -6.6519204437570645 387.0343099639588 -40.965690036041195 240.03430996395883  C-75.27945962832533 93.03430996395883 253.0343099639588 -134.95848323879264 400.0343099639588 -200.96569003604117  C547.0343099639588 -266.9728968332897 868.4084766975819 93.03430996395883 841.0343099639588 240.03430996395883" fill="none" stroke-linecap="round" stroke="url(#linear-gradient-r1)" stroke-width="7.75" style="transform-origin: center center 0px; transform: scale(1) translate(500px, -9px); transition: all 0.4s cubic-bezier(0.16, 1, 0.3, 1) 0s;"></path><path d="M 778.0343099639588 232.5343099639588 C754.4554861460308 358.5343099639588 526.0343099639588 623.3250974906102 400.0343099639588 610.5343099639588  C274.0343099639588 597.7435224373073 51.590582329015575 358.5343099639588 22.034309963958805 232.5343099639588  C-7.521962401097967 106.5343099639588 274.0343099639588 -88.61017677308587 400.0343099639588 -145.4656900360412  C526.0343099639588 -202.32120329899652 801.6131337818867 106.5343099639588 778.0343099639588 232.5343099639588" fill="none" stroke-linecap="round" stroke="url(#linear-gradient-r1)" stroke-width="5.166666666666667" style="transform-origin: center center 0px; transform: scale(1) translate(500px, -9px); transition: all 0.4s cubic-bezier(0.16, 1, 0.3, 1) 0s;"></path><path d="M 715.0343099639588 228.0343099639588 C693.8547634707418 333.0343099639588 505.0343099639588 554.5235632531579 400.0343099639588 543.0343099639588  C295.0343099639588 531.5450566747596 111.58306615110754 333.0343099639588 85.0343099639588 228.0343099639588  C58.48555377681007 123.0343099639588 295.0343099639588 -35.89554354158818 400.0343099639588 -86.9656900360412  C505.0343099639588 -138.0358365304942 736.2138564571758 123.0343099639588 715.0343099639588 228.0343099639588" fill="none" stroke-linecap="round" stroke="url(#linear-gradient-r1)" stroke-width="3.875" style="transform-origin: center center 0px; transform: scale(1) translate(500px, -9px); transition: all 0.4s cubic-bezier(0.16, 1, 0.3, 1) 0s;"></path><path d="M 652.0343099639588 225.0343099639588 C632.532560100739 309.0343099639588 484.0343099639588 487.6134101270758 400.0343099639588 477.0343099639588  C316.0343099639588 466.45520980084177 172.47993265503945 309.0343099639588 148.0343099639588 225.0343099639588  C123.58868727287818 141.0343099639588 316.0343099639588 20.05879288816964 400.0343099639588 -26.965690036041195  C484.0343099639588 -73.99017296025204 671.5360598271785 141.0343099639588 652.0343099639588 225.0343099639588" fill="none" stroke-linecap="round" stroke="url(#linear-gradient-r1)" stroke-width="3.1" style="transform-origin: center center 0px; transform: scale(1) translate(500px, -9px); transition: all 0.4s cubic-bezier(0.16, 1, 0.3, 1) 0s;"></path><path d="M 589.0343099639588 222.89145282110167 C570.7848654748767 285.89145282110167 463.0343099639588 421.7912157923907 400.0343099639588 411.89145282110167  C337.0343099639588 401.99168984981264 233.9101563588149 285.89145282110167 211.0343099639588 222.89145282110167  C188.1584635691027 159.89145282110167 337.0343099639588 77.89625735260068 400.0343099639588 33.891452821101666  C463.0343099639588 -10.113351710397355 607.2837544530408 159.89145282110167 589.0343099639588 222.89145282110167" fill="none" stroke-linecap="round" stroke="url(#linear-gradient-r1)" stroke-width="2.5833333333333335" style="transform-origin: center center 0px; transform: scale(1) translate(500px, -9px); transition: all 0.4s cubic-bezier(0.16, 1, 0.3, 1) 0s;"></path><path d="M 526.0343099639588 221.2843099639588 C508.76313369248993 263.2843099639588 442.0343099639588 356.6533924817956 400.0343099639588 347.2843099639588  C358.0343099639588 337.91522744612195 295.68388815692634 263.2843099639588 274.0343099639588 221.2843099639588  C252.3847317709912 179.2843099639588 358.0343099639588 136.93022068248703 400.0343099639588 95.2843099639588  C442.0343099639588 53.63839924543057 543.3054862354276 179.2843099639588 526.0343099639588 221.2843099639588" fill="none" stroke-linecap="round" stroke="url(#linear-gradient-r1)" stroke-width="2.2142857142857144" style="transform-origin: center center 0px; transform: scale(1) translate(500px, -9px); transition: all 0.4s cubic-bezier(0.16, 1, 0.3, 1) 0s;"></path><path d="M 463.0343099639588 220.0343099639588 C446.55341937770345 241.0343099639588 421.0343099639588 291.9746867769235 400.0343099639588 283.0343099639588  C379.0343099639588 274.0939331509941 357.6932577871191 241.0343099639588 337.0343099639588 220.0343099639588  C316.3753621407985 199.0343099639588 379.0343099639588 196.77460831589326 400.0343099639588 157.0343099639588  C421.0343099639588 117.29401161202435 479.5152005502141 199.0343099639588 463.0343099639588 220.0343099639588" fill="none" stroke-linecap="round" stroke="url(#linear-gradient-r1)" stroke-width="1.9375" style="transform-origin: center center 0px; transform: scale(1) translate(500px, -9px); transition: all 0.4s cubic-bezier(0.16, 1, 0.3, 1) 0s;"></path></g></g></svg>