<svg viewBox="0 0 700 700" height="700" width="700" xmlns="http://www.w3.org/2000/svg" version="1.1"><g transform-origin="center" transform="scale(1, 1) rotate(0)"><rect x="0" y="0" width="700" height="700" fill="#0e0e0eff"></rect><linearGradient id="linear-gradient-r1"><stop offset="0%" stop-color="#b9360aff" stop-opacity="100%"></stop><stop offset="100%" stop-color="#e35b2dff" stop-opacity="100%"></stop></linearGradient><filter x="-5%" y="-5%" width="110%" height="110%" filterUnits="objectBoundingBox" id="strokeStyle"><feTurbulence type="fractalNoise" baseFrequency="0.5" numOctaves="5" result="f1" stitchTiles="stitch"></feTurbulence><feColorMatrix type="matrix" values="0 0 0 0 0, 0 0 0 0 0, 0 0 0 0 0, 0 0 0 -1.5 1.5" result="f2"></feColorMatrix><feComposite operator="in" in2="f2b" in="SourceGraphic" result="f3"></feComposite><feTurbulence type="fractalNoise" baseFrequency="1.2" numOctaves="3" result="noise"></feTurbulence><feDisplacementMap xChannelSelector="R" yChannelSelector="G" scale="2.5" in="f3" result="f4"></feDisplacementMap></filter><g filter="url(#strokeStyle)"><path d="M 991.0292270063353 332.5292270063353 C956.7000988618108 883.4383179154262 935.9383179154262 957.1517243566035 385.0292270063353 938.5292270063353  C-165.8798639027556 919.9067296560671 -188.69686476155562 883.4383179154262 -220.97077299366472 332.5292270063353  C-253.24468122577383 -218.3798639027556 -165.8798639027556 -211.38751720030317 385.0292270063353 -273.4707729936647  C935.9383179154262 -335.55402878702625 1025.3583551508598 -218.3798639027556 991.0292270063353 332.5292270063353" fill="none" stroke-linecap="round" stroke="url(#linear-gradient-r1)" stroke-width="14" style="transform-origin: center center 0px; transform: scale(0.8) translate(409px, 426px); transition: all 0.4s cubic-bezier(0.16, 1, 0.3, 1) 0s;"></path><path d="M 955.695893673002 326.695893673002 C928.4907032772408 834.8777118548201 904.8777118548202 900.4538736579791 396.69589367300205 885.695893673002  C-111.48592450881611 870.937913688025 -136.7276391771936 834.8777118548201 -162.30410632699798 326.695893673002  C-187.88057347680237 -181.48592450881617 -111.48592450881611 -183.10429014941928 396.69589367300205 -232.30410632699804  C904.8777118548202 -281.5039225045768 982.9010840687633 -181.48592450881617 955.695893673002 326.695893673002" fill="none" stroke-linecap="round" stroke="url(#linear-gradient-r1)" stroke-width="7" style="transform-origin: center center 0px; transform: scale(0.8) translate(409px, 426px); transition: all 0.4s cubic-bezier(0.16, 1, 0.3, 1) 0s;"></path><path d="M 914.5292270063353 323.7792270063353 C891.0959514835797 789.2337724608808 867.9837724608808 848.4910590544273 402.5292270063353 835.7792270063353  C-62.92531844821016 823.0673949582433 -87.44040331415482 789.2337724608808 -109.47077299366472 323.7792270063353  C-131.50114267317463 -141.67531844821016 -62.92531844821016 -145.84235801525818 402.5292270063353 -188.22077299366472  C867.9837724608808 -230.59918797207126 937.9625025290909 -141.67531844821016 914.5292270063353 323.7792270063353" fill="none" stroke-linecap="round" stroke="url(#linear-gradient-r1)" stroke-width="4.666666666666667" style="transform-origin: center center 0px; transform: scale(0.8) translate(409px, 426px); transition: all 0.4s cubic-bezier(0.16, 1, 0.3, 1) 0s;"></path><path d="M 871.0292270063353 322.0292270063353 C849.9804184544345 744.756499733608 828.756499733608 798.4475589789345 406.0292270063353 787.0292270063353  C-16.698045720937415 775.6108950337361 -39.18211676157701 744.756499733608 -58.970772993664724 322.0292270063353  C-78.75942922575244 -100.69804572093742 -16.698045720937415 -104.90459898622521 406.0292270063353 -142.97077299366472  C828.756499733608 -181.03694700110424 892.0780355582361 -100.69804572093742 871.0292270063353 322.0292270063353" fill="none" stroke-linecap="round" stroke="url(#linear-gradient-r1)" stroke-width="3.5" style="transform-origin: center center 0px; transform: scale(0.8) translate(409px, 426px); transition: all 0.4s cubic-bezier(0.16, 1, 0.3, 1) 0s;"></path><path d="M 826.3625603396686 320.8625603396686 C806.981191648444 700.8625603396686 788.3625603396686 749.3763574153589 408.3625603396686 738.8625603396686  C28.362560339668647 728.3487632639782 8.583603178853691 700.8625603396686 -9.637439660331408 320.8625603396686  C-27.85848249951651 -59.13743966033135 28.362560339668647 -62.08678340663722 408.3625603396686 -97.13743966033141  C788.3625603396686 -132.1880959140256 845.7439290308931 -59.13743966033135 826.3625603396686 320.8625603396686" fill="none" stroke-linecap="round" stroke="url(#linear-gradient-r1)" stroke-width="2.8" style="transform-origin: center center 0px; transform: scale(0.8) translate(409px, 426px); transition: all 0.4s cubic-bezier(0.16, 1, 0.3, 1) 0s;"></path><path d="M 781.0292270063353 320.0292270063353 C762.8924334091611 657.3019542790626 747.3019542790626 700.8678803296534 410.0292270063353 691.0292270063353  C72.75649973360802 681.1905736830172 56.08020510620486 657.3019542790626 39.029227006335276 320.0292270063353  C21.97824890646569 -17.243500266391976 72.75649973360802 -18.170895541945548 410.0292270063353 -50.970772993664724  C747.3019542790626 -83.7706504453839 799.1660206035095 -17.243500266391976 781.0292270063353 320.0292270063353" fill="none" stroke-linecap="round" stroke="url(#linear-gradient-r1)" stroke-width="2.3333333333333335" style="transform-origin: center center 0px; transform: scale(0.8) translate(409px, 426px); transition: all 0.4s cubic-bezier(0.16, 1, 0.3, 1) 0s;"></path><path d="M 735.2792270063353 319.4042270063353 C718.1146629340731 613.9496815517898 705.8246815517898 652.7154756814695 411.2792270063353 643.4042270063353  C116.73377246088077 634.0929783312012 103.41618112238983 613.9496815517898 87.27922700633528 319.4042270063353  C71.14227289028072 24.858772460880772 116.73377246088077 26.44585490301605 411.2792270063353 -4.595772993664723  C705.8246815517898 -35.637400890345496 752.4437910785975 24.858772460880772 735.2792270063353 319.4042270063353" fill="none" stroke-linecap="round" stroke="url(#linear-gradient-r1)" stroke-width="2" style="transform-origin: center center 0px; transform: scale(0.8) translate(409px, 426px); transition: all 0.4s cubic-bezier(0.16, 1, 0.3, 1) 0s;"></path><path d="M 689.2514492285575 318.9181158952242 C672.8722925348098 570.736297713406 664.0696310467392 604.8033051969978 412.2514492285575 595.9181158952242  C160.43326741037566 587.0329265934506 150.65001681896857 570.736297713406 135.25144922855745 318.9181158952242  C119.85288163814631 67.0999340770424 160.43326741037566 71.53935679643459 412.2514492285575 41.91811589522419  C664.0696310467392 12.296874994013786 705.6306059223051 67.0999340770424 689.2514492285575 318.9181158952242" fill="none" stroke-linecap="round" stroke="url(#linear-gradient-r1)" stroke-width="1.75" style="transform-origin: center center 0px; transform: scale(0.8) translate(409px, 426px); transition: all 0.4s cubic-bezier(0.16, 1, 0.3, 1) 0s;"></path><path d="M 643.0292270063353 318.5292270063353 C627.3010997329437 527.6201360972443 622.1201360972443 557.0612528486558 413.0292270063353 548.5292270063353  C203.9383179154262 539.9972011640148 197.81574107530201 527.6201360972443 183.02922700633528 318.5292270063353  C168.24271293736854 109.43831791542621 203.9383179154262 116.9730996428229 413.0292270063353 88.52922700633528  C622.1201360972443 60.08535436984765 658.7573542797269 109.43831791542621 643.0292270063353 318.5292270063353" fill="none" stroke-linecap="round" stroke="url(#linear-gradient-r1)" stroke-width="1.5555555555555556" style="transform-origin: center center 0px; transform: scale(0.8) translate(409px, 426px); transition: all 0.4s cubic-bezier(0.16, 1, 0.3, 1) 0s;"></path><path d="M 596.6655906426989 318.2110451881535 C581.488198750712 484.5746815517898 580.0292270063353 509.4443140058934 413.66559064269893 501.2110451881535  C247.30195427906256 492.9777763704136 244.9343408149305 484.5746815517898 230.6655906426989 318.2110451881535  C216.3968404704673 151.84740882451712 247.30195427906256 162.65892848828932 413.66559064269893 135.21104518815346  C580.0292270063353 107.7631618880176 611.8429825346859 151.84740882451712 596.6655906426989 318.2110451881535" fill="none" stroke-linecap="round" stroke="url(#linear-gradient-r1)" stroke-width="1.4" style="transform-origin: center center 0px; transform: scale(0.8) translate(409px, 426px); transition: all 0.4s cubic-bezier(0.16, 1, 0.3, 1) 0s;"></path><path d="M 550.195893673002 317.945893673002 C535.4921327862133 441.5822573093656 537.8322573093656 461.9222322214331 414.195893673002 453.945893673002  C290.55953003663836 445.9695551245709 292.0193682316702 441.5822573093656 278.195893673002 317.945893673002  C264.37241911433375 194.30953003663834 290.55953003663836 208.5372287169865 414.195893673002 181.94589367300196  C537.8322573093656 155.35455862901742 564.8996545597907 194.30953003663834 550.195893673002 317.945893673002" fill="none" stroke-linecap="round" stroke="url(#linear-gradient-r1)" stroke-width="1.2727272727272727" style="transform-origin: center center 0px; transform: scale(0.8) translate(409px, 426px); transition: all 0.4s cubic-bezier(0.16, 1, 0.3, 1) 0s;"></path><path d="M 503.64461162171995 317.721534698643 C489.3537504056299 398.6306256077339 495.5537025308108 414.4738878609279 414.64461162171995 406.721534698643  C333.73552071262907 398.96918153635806 339.0799060313003 398.6306256077339 325.64461162171995 317.721534698643  C312.2093172121396 236.81244378955205 333.73552071262907 254.56615238455586 414.64461162171995 228.72153469864296  C495.5537025308108 202.87691701273005 517.93547283781 236.81244378955205 503.64461162171995 317.721534698643" fill="none" stroke-linecap="round" stroke="url(#linear-gradient-r1)" stroke-width="1.1666666666666667" style="transform-origin: center center 0px; transform: scale(0.8) translate(409px, 426px); transition: all 0.4s cubic-bezier(0.16, 1, 0.3, 1) 0s;"></path><path d="M 457.0292270063353 317.5292270063353 C443.10245340978724 355.7110451881535 453.2110451881535 367.08407382061034 415.0292270063353 359.5292270063353  C376.8474088245171 351.97438019206027 386.12223103288943 355.7110451881535 373.0292270063353 317.5292270063353  C359.9362229797812 279.3474088245171 376.8474088245171 300.71540254597346 415.0292270063353 275.5292270063353  C453.2110451881535 250.34305146669715 470.95600060288336 279.3474088245171 457.0292270063353 317.5292270063353" fill="none" stroke-linecap="round" stroke="url(#linear-gradient-r1)" stroke-width="1.0769230769230769" style="transform-origin: center center 0px; transform: scale(0.8) translate(409px, 426px); transition: all 0.4s cubic-bezier(0.16, 1, 0.3, 1) 0s;"></path></g></g></svg>