<svg viewBox="0 0 896 504" height="504" width="896" xmlns="http://www.w3.org/2000/svg" version="1.1"><g transform-origin="center" transform="scale(1, 1) rotate(0)"><rect x="0" y="0" width="896" height="504" fill="#0c182aff"></rect><linearGradient id="linear-gradient-r1"><stop offset="0%" stop-color="#b9360aff" stop-opacity="100%"></stop><stop offset="100%" stop-color="#e35b2dff" stop-opacity="100%"></stop></linearGradient><filter x="-5%" y="-5%" width="110%" height="110%" filterUnits="objectBoundingBox" id="strokeStyle"><feTurbulence type="fractalNoise" baseFrequency="0.5" numOctaves="5" stitchTiles="stitch" result="f1"></feTurbulence><feColorMatrix type="matrix" values="0 0 0 0 0, 0 0 0 0 0, 0 0 0 0 0, 0 0 0 -1.5 1.5" result="f2"></feColorMatrix><feComposite operator="in" in2="f2b" in="SourceGraphic" result="f3"></feComposite><feTurbulence type="fractalNoise" baseFrequency="1.2" numOctaves="3" result="noise"></feTurbulence><feDisplacementMap xChannelSelector="R" yChannelSelector="G" scale="2.5" in="f3" result="f4"></feDisplacementMap></filter><g filter="url(#strokeStyle)"><path d="M 1028.873702885541 239.47370288554114 C966.5439467413958 596.8070362188745 850.2070362188745 809.2856806832455 492.87370288554115 775.4737028855411  C135.54036955220784 741.6617250878368 61.04826580518374 596.8070362188745 -43.12629711445886 239.47370288554114  C-147.30086003410145 -117.85963044779217 135.54036955220784 -96.13234450145188 492.87370288554115 -296.5262971144589  C850.2070362188745 -496.9202497274659 1091.2034590296862 -117.85963044779217 1028.873702885541 239.47370288554114" fill="none" stroke-linecap="round" stroke="url(#linear-gradient-r1)" stroke-width="14" style="transform-origin: center center 0px; transform: scale(0.8) translate(409px, 426px); transition: all 0.4s cubic-bezier(0.16, 1, 0.3, 1) 0s;"></path><path d="M 996.8070362188745 235.27370288554116 C947.4118731350923 561.2737028855412 833.8070362188745 751.06906132783 507.8070362188745 724.2737028855412  C181.8070362188745 697.4783444432524 101.36342409719957 561.2737028855412 18.807036218874483 235.27370288554116  C-63.7493516594506 -90.72629711445884 181.8070362188745 -94.91784698300461 507.8070362188745 -253.72629711445884  C833.8070362188745 -412.5347472459131 1046.2021993026565 -90.72629711445884 996.8070362188745 235.27370288554116" fill="none" stroke-linecap="round" stroke="url(#linear-gradient-r1)" stroke-width="7" style="transform-origin: center center 0px; transform: scale(0.8) translate(409px, 426px); transition: all 0.4s cubic-bezier(0.16, 1, 0.3, 1) 0s;"></path><path d="M 957.2737028855412 233.17370288554116 C914.7270252407467 527.8403695522078 809.9403695522079 698.2539683780768 515.2737028855412 675.1737028855412  C220.6070362188745 652.0934373930055 144.38390484235924 527.8403695522078 73.27370288554118 233.17370288554116  C2.1635009287231197 -61.49296378112553 220.6070362188745 -72.03614372328929 515.2737028855412 -208.82629711445884  C809.9403695522079 -345.6164505056284 999.8203805303357 -61.49296378112553 957.2737028855412 233.17370288554116" fill="none" stroke-linecap="round" stroke="url(#linear-gradient-r1)" stroke-width="4.666666666666667" style="transform-origin: center center 0px; transform: scale(0.8) translate(409px, 426px); transition: all 0.4s cubic-bezier(0.16, 1, 0.3, 1) 0s;"></path><path d="M 914.7537028855412 231.91370288554117 C876.536387880003 495.2470362188745 783.0870362188745 647.6454221540516 519.7537028855412 626.9137028855412  C256.4203695522079 606.1819836170307 188.62804369728866 495.2470362188745 124.7537028855412 231.91370288554117  C60.87936207379373 -31.419630447792148 256.4203695522079 -40.215307622619314 519.7537028855412 -163.08629711445883  C783.0870362188745 -285.95728660629834 952.9710178910794 -31.419630447792148 914.7537028855412 231.91370288554117" fill="none" stroke-linecap="round" stroke="url(#linear-gradient-r1)" stroke-width="3.5" style="transform-origin: center center 0px; transform: scale(0.8) translate(409px, 426px); transition: all 0.4s cubic-bezier(0.16, 1, 0.3, 1) 0s;"></path><path d="M 870.7403695522079 231.07370288554117 C835.5505453545758 463.07370288554114 754.7403695522079 598.163101402099 522.7403695522079 579.0737028855411  C290.7403695522079 559.9843043689833 233.55472696008187 463.07370288554114 174.74036955220788 231.07370288554117  C115.9260121443339 -0.926297114458838 290.7403695522079 -3.7888744938389936 522.7403695522079 -116.92629711445883  C754.7403695522079 -230.06371973507868 905.93019374984 -0.926297114458838 870.7403695522079 231.07370288554117" fill="none" stroke-linecap="round" stroke="url(#linear-gradient-r1)" stroke-width="2.8" style="transform-origin: center center 0px; transform: scale(0.8) translate(409px, 426px); transition: all 0.4s cubic-bezier(0.16, 1, 0.3, 1) 0s;"></path><path d="M 825.8737028855412 230.47370288554117 C792.9435941630197 431.14036955220786 725.5403695522078 549.3372751804005 524.8737028855412 531.4737028855412  C324.2070362188746 513.6101305906819 278.9112948044246 431.14036955220786 223.8737028855412 230.47370288554117  C168.83611096665783 29.80703621887451 324.2070362188746 35.34600297317731 524.8737028855412 -70.52629711445883  C725.5403695522078 -176.39859720209498 858.8038116080627 29.80703621887451 825.8737028855412 230.47370288554117" fill="none" stroke-linecap="round" stroke="url(#linear-gradient-r1)" stroke-width="2.3333333333333335" style="transform-origin: center center 0px; transform: scale(0.8) translate(409px, 426px); transition: all 0.4s cubic-bezier(0.16, 1, 0.3, 1) 0s;"></path><path d="M 780.4737028855412 230.02370288554116 C749.3088248134686 399.3570362188745 695.8070362188746 500.92969178439336 526.4737028855412 484.0237028855412  C357.14036955220786 467.117713986689 324.5609843453625 399.3570362188745 272.47370288554123 230.02370288554116  C220.38642142571996 60.690369552207805 357.14036955220786 76.22067919204464 526.4737028855412 -23.97629711445885  C695.8070362188746 -124.17327342096233 811.6385809576138 60.690369552207805 780.4737028855412 230.02370288554116" fill="none" stroke-linecap="round" stroke="url(#linear-gradient-r1)" stroke-width="2" style="transform-origin: center center 0px; transform: scale(0.8) translate(409px, 426px); transition: all 0.4s cubic-bezier(0.16, 1, 0.3, 1) 0s;"></path><path d="M 734.7181473299855 229.67370288554113 C704.9792958721204 367.67370288554116 665.7181473299855 452.8061161569352 527.7181473299855 436.67370288554116  C389.7181473299855 420.5412896141471 370.42204550007784 367.67370288554116 320.7181473299855 229.67370288554113  C271.0142491598932 91.67370288554113 389.7181473299855 118.2859169944916 527.7181473299855 22.67370288554113  C665.7181473299855 -72.93851122340934 764.4569987878507 91.67370288554113 734.7181473299855 229.67370288554113" fill="none" stroke-linecap="round" stroke="url(#linear-gradient-r1)" stroke-width="1.75" style="transform-origin: center center 0px; transform: scale(0.8) translate(409px, 426px); transition: all 0.4s cubic-bezier(0.16, 1, 0.3, 1) 0s;"></path><path d="M 688.7137028855411 229.39370288554113 C660.1568944100267 336.0603695522078 635.3803695522078 404.8848941540327 528.7137028855411 389.39370288554113  C422.04703621887444 373.9025116170496 416.4419987325016 336.0603695522078 368.7137028855411 229.39370288554113  C320.98540703858066 122.72703621887446 422.04703621887444 161.20557699566467 528.7137028855411 69.39370288554113  C635.3803695522078 -22.418171224582398 717.2705113610556 122.72703621887446 688.7137028855411 229.39370288554113" fill="none" stroke-linecap="round" stroke="url(#linear-gradient-r1)" stroke-width="1.5555555555555556" style="transform-origin: center center 0px; transform: scale(0.8) translate(409px, 426px); transition: all 0.4s cubic-bezier(0.16, 1, 0.3, 1) 0s;"></path><path d="M 642.5282483400866 229.16461197645023 C614.9713837570704 304.4979453097836 604.86158167342 357.1133644037901 529.5282483400866 342.16461197645026  C454.1949150067533 327.2158595491104 462.5852923742811 304.4979453097836 416.52824834008663 229.16461197645023  C370.4712043058922 153.8312786431169 454.1949150067533 204.76160572436703 529.5282483400866 116.16461197645023  C604.86158167342 27.567618228533444 670.0851129231029 153.8312786431169 642.5282483400866 229.16461197645023" fill="none" stroke-linecap="round" stroke="url(#linear-gradient-r1)" stroke-width="1.4" style="transform-origin: center center 0px; transform: scale(0.8) translate(409px, 426px); transition: all 0.4s cubic-bezier(0.16, 1, 0.3, 1) 0s;"></path><path d="M 596.2070362188745 228.97370288554114 C569.5101208000789 272.9737028855411 574.2070362188745 309.45595931086643 530.2070362188745 294.9737028855411  C486.20703621887446 280.4914464602158 508.82680801172353 272.9737028855411 464.20703621887446 228.97370288554114  C419.5872644260254 184.97370288554114 486.20703621887446 248.8059078275156 530.2070362188745 162.97370288554114  C574.2070362188745 77.14149794356669 622.90395163767 184.97370288554114 596.2070362188745 228.97370288554114" fill="none" stroke-linecap="round" stroke="url(#linear-gradient-r1)" stroke-width="1.2727272727272727" style="transform-origin: center center 0px; transform: scale(0.8) translate(409px, 426px); transition: all 0.4s cubic-bezier(0.16, 1, 0.3, 1) 0s;"></path><path d="M 549.7813951932335 228.8121644240027 C523.83416195915 241.47883109066936 543.4480618599001 261.88774129604695 530.7813951932335 247.8121644240027  C518.1147285265669 233.73658755195848 555.1481889744181 241.47883109066936 511.7813951932335 228.8121644240027  C468.4146014120489 216.14549775733605 518.1147285265669 293.2340955980103 530.7813951932335 209.8121644240027  C543.4480618599001 126.39023324999512 575.728628427317 216.14549775733605 549.7813951932335 228.8121644240027" fill="none" stroke-linecap="round" stroke="url(#linear-gradient-r1)" stroke-width="1.1666666666666667" style="transform-origin: center center 0px; transform: scale(0.8) translate(409px, 426px); transition: all 0.4s cubic-bezier(0.16, 1, 0.3, 1) 0s;"></path></g></g></svg>