<svg viewBox="0 0 896 504" height="504" width="896" xmlns="http://www.w3.org/2000/svg" version="1.1"><rect x="0" y="0" width="896" height="504" fill="#FFEDD5"></rect><g transform-origin="448 252" transform="scale(1, 1)"><linearGradient id="linear-gradient-r1"><stop offset="0%" stop-color="#df6f36ad" stop-opacity="100%"></stop><stop offset="100%" stop-color="#d98f328c" stop-opacity="100%"></stop></linearGradient><filter id="shadow-r1" x="-20%" width="150%" y="-20%" height="150%"><feDropShadow dx="0" dy="0" stdDeviation="10" flood-color="#00000061"></feDropShadow></filter><path d="M0 0 0,350 C 12.600000000000001,341.6 39,324.8 63,308 C 87,291.2 98,283.4 120,266 C 142,248.6 152.8,239.6 173,221 C 193.2,202.4 202.4,193.20000000000002 221,173 C 239.6,152.8 248.6,142 266,120 C 283.4,98 291.2,87 308,63 C 324.8,39 341.6,12.600000000000003 350,0 L0 0Z" fill="none" stroke-linecap="round" filter="url(#shadow-r1)" stroke-width="1" style="transition: all 0.4s cubic-bezier(0.16, 1, 0.3, 1) 0s; fill: url(&quot;#linear-gradient-r1&quot;);"></path><path d="M0 0 0,251 C 9.000000000000002,245 27.800000000000004,233 45,221 C 62.2,209 70.2,203.4 86,191 C 101.8,178.6 109.4,172.4 124,159 C 138.6,145.6 145.6,138.6 159,124 C 172.4,109.4 178.6,101.8 191,86 C 203.4,70.2 209,62.2 221,45 C 233,27.8 245,9.000000000000002 251,0 L0 0Z" fill="none" stroke-linecap="round" filter="url(#shadow-r1)" stroke-width="1" style="transition: all 0.4s cubic-bezier(0.16, 1, 0.3, 1) 0s; fill: url(&quot;#linear-gradient-r1&quot;);"></path><path d="M0 0 0,152 C 5.3999999999999995,148.2 16.6,140.4 27,133 C 37.4,125.6 42.4,122.4 52,115 C 61.6,107.6 66.2,104 75,96 C 83.8,88 88,83.8 96,75 C 104,66.2 107.60000000000001,61.6 115,52 C 122.4,42.4 125.60000000000001,37.400000000000006 133,27 C 140.4,16.6 148.2,5.3999999999999995 152,0 L0 0Z" fill="none" stroke-linecap="round" filter="url(#shadow-r1)" stroke-width="1" style="transition: all 0.4s cubic-bezier(0.16, 1, 0.3, 1) 0s; fill: url(&quot;#linear-gradient-r1&quot;);"></path></g><g transform-origin="448 252" transform="scale(-1, -1)"><linearGradient id="linear-gradient-r1"><stop offset="0%" stop-color="#df6f36ad" stop-opacity="100%"></stop><stop offset="100%" stop-color="#d98f328c" stop-opacity="100%"></stop></linearGradient><filter id="shadow-r1" x="-20%" width="150%" y="-20%" height="150%"><feDropShadow dx="0" dy="0" stdDeviation="10" flood-color="#00000061"></feDropShadow></filter><path d="M0 0 0,350 C 12.600000000000001,341.6 39,324.8 63,308 C 87,291.2 98,283.4 120,266 C 142,248.6 152.8,239.6 173,221 C 193.2,202.4 202.4,193.20000000000002 221,173 C 239.6,152.8 248.6,142 266,120 C 283.4,98 291.2,87 308,63 C 324.8,39 341.6,12.600000000000003 350,0 L0 0Z" fill="none" stroke-linecap="round" filter="url(#shadow-r1)" stroke-width="1" style="transition: all 0.4s cubic-bezier(0.16, 1, 0.3, 1) 0s; fill: url(&quot;#linear-gradient-r1&quot;);"></path><path d="M0 0 0,251 C 9.000000000000002,245 27.800000000000004,233 45,221 C 62.2,209 70.2,203.4 86,191 C 101.8,178.6 109.4,172.4 124,159 C 138.6,145.6 145.6,138.6 159,124 C 172.4,109.4 178.6,101.8 191,86 C 203.4,70.2 209,62.2 221,45 C 233,27.8 245,9.000000000000002 251,0 L0 0Z" fill="none" stroke-linecap="round" filter="url(#shadow-r1)" stroke-width="1" style="transition: all 0.4s cubic-bezier(0.16, 1, 0.3, 1) 0s; fill: url(&quot;#linear-gradient-r1&quot;);"></path><path d="M0 0 0,152 C 5.3999999999999995,148.2 16.6,140.4 27,133 C 37.4,125.6 42.4,122.4 52,115 C 61.6,107.6 66.2,104 75,96 C 83.8,88 88,83.8 96,75 C 104,66.2 107.60000000000001,61.6 115,52 C 122.4,42.4 125.60000000000001,37.400000000000006 133,27 C 140.4,16.6 148.2,5.3999999999999995 152,0 L0 0Z" fill="none" stroke-linecap="round" filter="url(#shadow-r1)" stroke-width="1" style="transition: all 0.4s cubic-bezier(0.16, 1, 0.3, 1) 0s; fill: url(&quot;#linear-gradient-r1&quot;);"></path></g></svg>