<?xml version="1.0" standalone="no"?>
<!DOCTYPE svg PUBLIC "-//W3C//DTD SVG 20010904//EN"
 "http://www.w3.org/TR/2001/REC-SVG-20010904/DTD/svg10.dtd">
<svg version="1.0" xmlns="http://www.w3.org/2000/svg"
 width="512.000000pt" height="512.000000pt" viewBox="0 0 512.000000 512.000000"
 preserveAspectRatio="xMidYMid meet">
<linearGradient id="linear-gradient-r1">
    <stop offset="0%" stop-color="#d54401ff" stop-opacity="100%"></stop>
    <stop offset="100%" stop-color="#d54401ff" stop-opacity="100%"></stop>
</linearGradient>
<filter x="-5%" y="-5%" width="110%" height="110%" filterUnits="objectBoundingBox" id="strokeStyle">
    <feTurbulence type="fractalNoise" baseFrequency="0.5" numOctaves="5" result="f1" stitchTiles="stitch"></feTurbulence>
    <feColorMatrix type="matrix" values="0 0 0 0 0, 0 0 0 0 0, 0 0 0 0 0, 0 0 0 -1.5 1.5" result="f2">
    </feColorMatrix>
    <feComposite operator="in" in2="f2b" in="SourceGraphic" result="f3"></feComposite>
    <feTurbulence type="fractalNoise" baseFrequency="0" numOctaves="9" result="noise"></feTurbulence>
    <feDisplacementMap xChannelSelector="R" yChannelSelector="G" scale="8" in="f3" result="f4"></feDisplacementMap>
</filter>
<g transform="translate(0.000000,512.000000) scale(0.100000,-0.100000)" filter="url(#strokeStyle)">
<path d="M3916 4600 c-44 -28 -58 -63 -64 -157 -5 -78 -7 -85 -31 -98 -25 -12
-42 -36 -55 -77 -5 -17 -60 -18 -961 -18 l-955 0 0 78 c0 95 -26 156 -80 184
-32 17 -68 18 -463 18 -472 0 -474 0 -518 -61 -20 -29 -25 -48 -27 -126 l-4
-93 -124 0 c-143 0 -172 -9 -198 -64 -14 -31 -16 -123 -16 -946 0 -822 2 -915
16 -939 22 -37 51 -54 103 -61 43 -5 44 -6 56 -55 15 -58 60 -102 109 -107
l31 -3 5 -138 c5 -149 9 -157 62 -157 48 0 58 29 58 172 l0 128 50 0 c67 0
113 39 130 110 11 44 15 50 38 50 37 0 88 33 106 68 8 16 57 209 107 428 51
219 97 405 102 412 15 19 1507 13 1530 -7 16 -12 17 -78 17 -762 l0 -749
-1426 0 c-1326 0 -1428 -1 -1455 -17 -55 -33 -59 -55 -59 -343 0 -213 3 -268
15 -294 23 -48 61 -66 144 -66 38 0 82 -5 95 -12 14 -6 84 -89 155 -183 107
-143 137 -176 173 -194 l44 -21 1865 0 1865 0 44 22 c36 19 98 86 313 343 231
275 270 326 283 372 13 43 15 100 12 301 -4 314 -6 318 -156 367 l-67 22 -3
671 -2 672 122 0 c106 0 128 3 156 20 58 35 62 59 62 356 0 367 6 356 -220
364 l-145 5 -5 80 c-9 147 -23 155 -255 155 l-175 0 -14 35 c-17 39 -68 75
-108 75 l-28 0 0 80 c0 93 -15 131 -63 160 -44 28 -150 28 -191 0z m136 -194
c3 -89 5 -97 33 -126 18 -19 43 -33 68 -37 30 -5 40 -12 51 -37 26 -63 51 -71
249 -74 l177 -4 0 -69 c0 -79 15 -116 57 -145 24 -16 51 -20 171 -22 l142 -4
0 -249 0 -249 -126 0 c-100 0 -132 -3 -154 -17 -61 -35 -59 -15 -63 -753 -2
-371 0 -691 4 -710 12 -52 65 -95 147 -119 l70 -21 7 -233 c6 -193 5 -238 -8
-267 -18 -43 -476 -597 -519 -627 l-31 -23 -1833 0 c-1288 0 -1840 3 -1856 11
-13 6 -77 83 -142 171 -155 207 -183 228 -312 228 l-64 0 0 240 0 240 1436 2
1436 3 34 37 34 38 0 774 c0 525 -3 784 -11 803 -13 35 -45 70 -84 91 -27 15
-106 17 -800 20 -857 3 -833 5 -874 -62 -12 -19 -54 -179 -106 -402 -47 -203
-91 -388 -97 -411 -9 -38 -13 -42 -49 -48 -53 -9 -95 -51 -110 -109 l-11 -46
-103 0 -103 0 -6 43 c-4 23 -15 52 -26 65 -22 26 -78 52 -115 52 l-25 0 0 885
0 885 1609 0 c885 0 1623 3 1640 6 36 8 91 57 91 82 0 10 15 26 34 36 46 24
58 56 64 159 l4 87 33 0 33 0 4 -94z m-2332 -81 l0 -75 -415 0 -415 0 0 75 0
75 415 0 415 0 0 -75z" style="fill:#000000;fill-opacity:0;stroke:url(#linear-gradient-r1);stroke-width:50.3066;stroke-dasharray:none;stroke-opacity:9"/>
<path d="M3693 3310 c-163 -33 -281 -168 -291 -332 -9 -146 74 -281 213 -344
48 -22 75 -28 135 -28 88 0 135 14 207 61 62 41 105 97 134 173 29 77 24 193
-12 270 -66 141 -237 230 -386 200z m159 -71 c48 -12 115 -64 150 -114 79
-116 59 -288 -45 -382 -60 -54 -120 -76 -203 -76 -84 0 -146 25 -207 86 -58
58 -82 117 -82 207 0 89 23 147 79 203 84 84 180 108 308 76z" style="fill:#000000;fill-opacity:0;stroke:url(#linear-gradient-r1);stroke-width:50.3066;stroke-dasharray:none;stroke-opacity:1"/>
<path d="M3700 3109 c-14 -6 -36 -20 -48 -32 -103 -95 -45 -262 95 -274 170
-14 233 222 79 296 -46 23 -86 26 -126 10z m117 -39 c44 -26 66 -63 66 -110 0
-94 -101 -157 -184 -115 -91 48 -90 183 2 228 45 22 77 21 116 -3z" style="fill:#000000;fill-opacity:0;stroke:url(#linear-gradient-r1);stroke-width:50.3066;stroke-dasharray:none;stroke-opacity:1"/>
<path d="M3697 2417 c-161 -50 -201 -258 -70 -366 101 -83 256 -47 321 73 25
48 22 142 -7 193 -28 50 -84 91 -138 104 -48 11 -59 10 -106 -4z m150 -75 c91
-65 79 -218 -21 -266 -49 -23 -107 -20 -146 7 -55 37 -75 72 -75 132 0 60 19
95 76 133 43 30 120 27 166 -6z" style="fill:#000000;fill-opacity:0;stroke:url(#linear-gradient-r1);stroke-width:50.3066;stroke-dasharray:none;stroke-opacity:1"/>
<path d="M733 1320 c-61 -37 -68 -64 -68 -267 0 -199 2 -208 69 -257 27 -21
28 -21 1744 -24 1619 -2 1719 -1 1752 15 19 10 45 34 58 53 23 34 23 40 20
227 l-3 193 -38 37 -37 38 -1733 3 c-1704 2 -1733 2 -1764 -18z m3446 -114 c8
-9 11 -60 9 -157 l-3 -144 -1695 0 -1695 0 -3 145 c-1 79 0 150 2 157 8 20
3368 19 3385 -1z" style="fill:#000000;fill-opacity:0;stroke:url(#linear-gradient-r1);stroke-width:50.3066;stroke-dasharray:none;stroke-opacity:1"/>
</g>
</svg>
