<?xml version="1.0" standalone="no"?>
<!DOCTYPE svg PUBLIC "-//W3C//DTD SVG 20010904//EN"
 "http://www.w3.org/TR/2001/REC-SVG-20010904/DTD/svg10.dtd">
<svg version="1.0" xmlns="http://www.w3.org/2000/svg"
 width="284.000000pt" height="300.000000pt" viewBox="0 0 284.000000 300.000000"
 preserveAspectRatio="xMidYMid meet">

<g transform="translate(0.000000,300.000000) scale(0.100000,-0.100000)"
fill="#ffffff" stroke="none">
<path d="M2250 2989 c-124 -21 -265 -120 -323 -227 -89 -163 -71 -366 44 -513
16 -20 29 -41 29 -47 0 -22 -197 -211 -245 -235 -173 -86 -314 -72 -504 48
-130 82 -230 115 -355 115 -117 0 -195 -18 -289 -67 -67 -36 -69 -36 -87 -17
-10 10 -107 125 -215 254 -109 129 -204 239 -212 243 -17 10 -43 -9 -43 -32 1
-9 250 -312 555 -675 l555 -658 0 -324 0 -324 -515 0 c-487 0 -518 -1 -553
-19 -38 -19 -73 -71 -86 -124 -11 -45 12 -108 54 -149 l38 -38 819 0 819 0 37
-49 c76 -102 166 -144 312 -144 246 -1 440 126 599 390 63 105 56 168 -19 193
-29 10 -41 8 -90 -14 -88 -41 -120 -36 -204 30 -102 79 -168 107 -269 112
-143 8 -256 -37 -331 -132 -17 -21 -31 -43 -31 -47 0 -5 -115 -9 -255 -9
l-255 0 0 325 0 325 401 477 c221 263 407 484 414 491 10 11 22 9 66 -14 109
-55 221 -68 334 -39 222 58 371 286 335 512 -41 253 -279 425 -530 382z
m-1186 -953 c39 -15 106 -50 149 -78 126 -80 184 -100 307 -105 75 -3 119 0
153 10 26 8 47 13 47 10 0 -13 -523 -622 -530 -618 -15 9 -590 694 -596 710
-7 18 93 70 174 90 85 22 210 14 296 -19z m1134 -1403 c24 -8 81 -44 128 -79
114 -84 168 -93 270 -44 77 38 83 12 22 -91 -136 -226 -323 -348 -534 -349
-92 0 -154 23 -217 80 -189 172 -103 463 147 500 63 9 127 4 184 -17z m-1038
-273 l0 -101 -521 3 -521 3 -19 24 c-39 48 -37 104 6 147 l24 24 516 0 515 0
0 -100z"/>
</g>
</svg>
