<svg viewBox="0 0 800 600" height="600" width="800" xmlns="http://www.w3.org/2000/svg" version="1.1">
<g transform-origin="center" transform="scale(1, 1) rotate(0)">
<rect x="0" y="0" width="800" height="600" fill="#002438"></rect>
<linearGradient id="linear-gradient-r0">
<stop offset="0%" stop-color="#ff2d00ff" stop-opacity="100%"></stop>
<stop offset="100%" stop-color="#dd643cff" stop-opacity="100%"></stop></linearGradient>
<filter id="shadow-r0" x="0" width="100%" y="-20%" height="150%">
<feDropShadow dx="0" dy="0" stdDeviation="10" flood-color="#00000061"></feDropShadow>
</filter>
    <path d="M0 0 0,341.24722115322953 C 17.77777777777778,341.184392913878 53.33333333333333,340.0846340240539 88.88888888888889,340.933079956472 C 124.44444444444444,341.7815258888901 142.22222222222223,345.6258752056957 177.77777777777777,345.4894508153201 C 213.33333333333331,345.35302642494446 231.1111111111111,342.03350334957247 266.66666666666663,340.2509580045939 C 302.2222222222222,338.4684126596153 320,339.6144783972204 355.55555555555554,336.5767240904272 C 391.1111111111111,333.538969783634 408.8888888888889,326.71732892781506 444.44444444444446,325.06218647062786 C 480,323.40704401344067 497.7777777777777,327.46314354553823 533.3333333333333,328.30101180449134 C 568.8888888888888,329.13888006344445 586.6666666666666,327.70280591398483 622.2222222222222,329.2515277653933 C 657.7777777777777,330.80024961680175 675.5555555555555,334.6430166366697 711.1111111111111,336.04462106153375 C 746.6666666666666,337.4462254863978 782.2222222222222,336.2165641240776 800,336.2595498897136 L800 600 L0 600Z" fill="none" stroke-linecap="round" filter="url(#shadow-r0)" stroke-width="1" style="transition: all 0.4s cubic-bezier(0.16, 1, 0.3, 1) 0s; fill: url(&quot;#linear-gradient-r0&quot;);"></path>
    <path d="M0 0 0,423.12230458883573 C 17.77777777777778,424.2532609270141 53.33333333333333,428.946398692783 88.88888888888889,428.7770862797276 C 124.44444444444444,428.6077738666722 142.22222222222223,424.4880086213444 177.77777777777777,422.2757425235585 C 213.33333333333331,420.0634764257726 231.1111111111111,421.4858258679789 266.66666666666663,417.715755790798 C 302.2222222222222,413.94568571361714 320,405.4795421514847 355.55555555555554,403.42539213765417 C 391.1111111111111,401.37124212382366 408.8888888888889,406.4051513645519 444.44444444444446,407.4450057216455 C 480,408.4848600787391 497.7777777777777,406.70258948253473 533.3333333333333,408.62466392312206 C 568.8888888888888,410.5467383637094 586.6666666666666,415.315886718724 622.2222222222222,417.05537792458205 C 657.7777777777777,418.79486913044013 675.5555555555555,418.51107645800346 711.1111111111111,417.3221199524124 C 746.6666666666666,416.13316344682136 782.2222222222222,412.35290030778395 800,411.1105953966268 L800 600 L0 600Z" fill="none" stroke-linecap="round" filter="url(#shadow-r0)" stroke-width="1" style="transition: all 0.4s cubic-bezier(0.16, 1, 0.3, 1) 0s; fill: url(&quot;#linear-gradient-r0&quot;);"></path>
    <path d="M0 0 0,512.0647217441351 C 17.77777777777778,510.5118828038127 53.33333333333332,506.9425138931163 88.88888888888889,504.3005270425231 C 124.44444444444446,501.65854019192983 142.22222222222223,503.3571733387374 177.77777777777777,498.8547874911689 C 213.33333333333331,494.3524016436004 231.1111111111111,484.2417553751544 266.66666666666663,481.78859780468053 C 302.2222222222222,479.33544023420666 320,485.34715918356557 355.55555555555554,486.58899963879963 C 391.1111111111111,487.8308400940337 408.8888888888889,485.70237305108463 444.44444444444446,487.99780008085077 C 480,490.2932271106169 497.7777777777777,495.9887568007783 533.3333333333333,498.06613478763035 C 568.8888888888888,500.1435127744824 586.6666666666666,499.80459490668034 622.2222222222222,498.3846900151112 C 657.7777777777777,496.964785123542 675.5555555555555,490.6031659410336 711.1111111111111,490.9666103297845 C 746.6666666666666,491.33005471853545 782.2222222222222,498.3548516330496 800,500.2019119588659 L800 600 L0 600Z" fill="none" stroke-linecap="round" filter="url(#shadow-r0)" stroke-width="1" style="transition: all 0.4s cubic-bezier(0.16, 1, 0.3, 1) 0s; fill: url(&quot;#linear-gradient-r0&quot;);"></path>
    <path d="M0 0 0,586.3253115614876 C 17.77777777777778,585.059013087498 53.333333333333336,585.2285208094958 88.88888888888889,579.9938191915396 C 124.44444444444443,574.7591175735835 142.22222222222223,563.0039685988239 177.77777777777777,560.1518034717068 C 213.33333333333331,557.2996383445897 231.1111111111111,564.2891670025792 266.66666666666663,565.7329935559537 C 302.2222222222222,567.1768201093282 320,564.7021566196345 355.55555555555554,567.3709362385795 C 391.1111111111111,570.0397158575245 408.8888888888889,576.6616268828325 444.44444444444446,579.0768916506786 C 480,581.4921564185247 497.7777777777777,581.0981133553572 533.3333333333333,579.4472600778099 C 568.8888888888888,577.7964068002626 586.6666666666666,570.4000664254186 622.2222222222222,570.8226252629422 C 657.7777777777777,571.2451841004658 675.5555555555555,580.3263424507529 711.1111111111111,581.5600542654283 C 746.6666666666666,582.7937660801038 782.2222222222222,577.9049583221413 800,576.9911843363195 L800 600 L0 600Z" fill="none" stroke-linecap="round" filter="url(#shadow-r0)" stroke-width="1" style="transition: all 0.4s cubic-bezier(0.16, 1, 0.3, 1) 0s; fill: url(&quot;#linear-gradient-r0&quot;);"></path>
    <path d="M0 0 0,661.1328508919105 C 17.77777777777778,656.609282541275 53.33333333333333,641.7661818224936 88.88888888888889,638.5150091387331 C 124.44444444444444,635.2638364549726 142.22222222222223,643.2311748215928 177.77777777777777,644.8769874731079 C 213.33333333333331,646.5228001246229 231.11111111111106,643.7019401881844 266.66666666666663,646.7440723963082 C 302.2222222222222,649.786204604432 320,657.3344969648867 355.55555555555554,660.0876485137269 C 391.1111111111111,662.840800062567 408.8888888888889,662.3916318040341 444.44444444444446,660.5098301405087 C 480,658.6280284769833 497.7777777777777,650.1969669098035 533.3333333333333,650.6786401960999 C 568.8888888888888,651.1603134823963 586.6666666666666,661.5118929490447 622.2222222222222,662.9181965719908 C 657.7777777777777,664.324500194937 675.5555555555555,660.6008053991943 711.1111111111111,657.7101583108306 C 746.6666666666666,654.8195112224669 782.2222222222222,650.3140005663038 800,648.464961130172 L800 600 L0 600Z" fill="none" stroke-linecap="round" filter="url(#shadow-r0)" stroke-width="1" style="transition: all 0.4s cubic-bezier(0.16, 1, 0.3, 1) 0s; fill: url(&quot;#linear-gradient-r0&quot;);"></path>
    <path d="M0 0 0,716.8782148057595 C 17.77777777777778,718.3067681226601 53.33333333333333,722.1731826406066 88.88888888888889,724.020981390262 C 124.44444444444444,725.8687801399175 142.22222222222223,722.7017237567343 177.77777777777777,726.1172085540369 C 213.33333333333331,729.5326933513395 231.1111111111111,738.0073670469411 266.66666666666663,741.0984053767752 C 302.2222222222222,744.1894437066093 320,743.6851502527111 355.55555555555554,741.5724002032075 C 391.1111111111111,739.4596501537039 408.8888888888889,729.9938673941883 444.44444444444446,730.5346551292575 C 480,731.0754428643268 497.7777777777777,742.6974434473366 533.3333333333333,744.2763388785534 C 568.8888888888888,745.8552343097701 586.6666666666666,741.6745406072773 622.2222222222222,738.4291322853417 C 657.7777777777777,735.183723963406 675.5555555555555,726.23693907829 711.1111111111111,728.049297268875 C 746.6666666666666,729.8616554594599 782.2222222222222,743.6025980443881 800,747.4909232382663 L800 600 L0 600Z" fill="none" stroke-linecap="round" filter="url(#shadow-r0)" stroke-width="1" style="transition: all 0.4s cubic-bezier(0.16, 1, 0.3, 1) 0s; fill: url(&quot;#linear-gradient-r0&quot;);"></path>   
    <path d="M0 0 0,803.1649753074162 C 17.777777777777775,803.6300491882861 53.333333333333336,801.7015073252842 88.88888888888889,805.4903447117656 C 124.44444444444443,809.279182098247 142.22222222222223,818.6802371289954 177.77777777777777,822.1091622398235 C 213.33333333333331,825.5380873506516 231.1111111111111,824.978668701388 266.66666666666663,822.6349702659063 C 302.2222222222222,820.2912718304246 320,809.7907678785734 355.55555555555554,810.3906700624153 C 391.1111111111111,810.9905722462572 408.8888888888889,823.8829939456284 444.44444444444446,825.6344811851159 C 480,827.3859684246033 497.7777777777777,822.7482758153602 533.3333333333333,819.1481062598526 C 568.8888888888888,815.547936704345 586.6666666666666,805.6231631880627 622.2222222222222,807.6336334075779 C 657.7777777777777,809.6441036270932 675.5555555555555,824.3856167942658 711.1111111111111,829.200457357429 C 746.6666666666666,834.015297920592 782.2222222222222,831.2063604502007 800,831.7078362233937 L800 600 L0 600Z" fill="none" stroke-linecap="round" filter="url(#shadow-r0)" stroke-width="1" style="transition: all 0.4s cubic-bezier(0.16, 1, 0.3, 1) 0s; fill: url(&quot;#linear-gradient-r0&quot;);"></path>
</g>
</svg>