<?xml version="1.0" standalone="no"?>
<!DOCTYPE svg PUBLIC "-//W3C//DTD SVG 20010904//EN"
 "http://www.w3.org/TR/2001/REC-SVG-20010904/DTD/svg10.dtd">
<svg version="1.0" xmlns="http://www.w3.org/2000/svg"
 width="300.000000pt" height="350.000000pt" viewBox="0 0 450.000000 300.000000"
 preserveAspectRatio="xMidYMid meet">
<g transform="translate(0.000000,300.000000) scale(0.150000,-0.150000)">
<g>
<path d="M1097 2659 c-10 -6 -31 -8 -46 -4 -41 9 -146 -12 -200 -40 -49 -24
-80 -48 -207 -158 -113 -98 -123 -103 -182 -77 -26 12 -67 24 -91 27 l-44 6 6
-40 c6 -33 3 -44 -13 -58 -23 -21 -24 -40 -8 -151 16 -109 0 -149 -83 -205
-49 -33 -66 -39 -109 -39 -39 0 -52 -4 -57 -17 -3 -10 -19 -32 -35 -49 -29
-31 -29 -33 -14 -62 11 -21 16 -58 16 -117 0 -48 4 -94 9 -104 5 -9 44 -46 86
-81 95 -78 130 -125 146 -196 8 -34 20 -59 31 -65 47 -25 64 -148 32 -230 -16
-39 -16 -42 6 -89 15 -32 55 -81 112 -136 100 -97 118 -120 127 -167 7 -31 9
-32 71 -40 85 -10 147 -41 244 -122 95 -79 154 -115 215 -131 34 -8 47 -17 51
-34 4 -18 20 -27 80 -44 41 -12 127 -43 190 -69 156 -63 229 -80 312 -75 66 5
67 5 77 -23 13 -37 45 -49 102 -38 77 14 124 11 144 -11 23 -25 37 -25 60 0
10 11 31 20 47 20 16 0 45 7 66 17 22 10 57 15 88 14 29 -2 98 9 158 23 59 14
134 26 167 26 66 0 100 14 141 57 59 62 63 83 63 368 0 227 2 267 18 313 13
37 27 57 47 67 29 15 40 39 40 92 0 20 8 40 21 52 19 17 21 27 16 70 -13 112
-97 200 -215 226 -22 4 -37 16 -48 38 -9 17 -55 72 -103 122 -89 93 -131 160
-131 209 0 21 -12 39 -48 71 -26 23 -57 63 -70 88 -29 58 -46 150 -38 209 6
46 4 50 -67 160 -104 160 -170 214 -250 203 -33 -4 -50 -1 -79 17 -146 91
-121 83 -250 80 -105 -2 -123 0 -185 23 -99 38 -134 44 -197 33 -53 -9 -59 -8
-111 21 -58 33 -79 37 -108 20z m98 -35 c63 -35 65 -35 123 -24 56 11 63 10
153 -21 87 -31 103 -34 219 -34 l125 0 74 -47 c65 -42 81 -48 128 -48 30 0 66
-6 81 -14 35 -18 111 -100 147 -157 15 -24 41 -64 57 -89 26 -37 29 -51 25
-90 -7 -60 9 -155 35 -208 11 -24 42 -66 69 -92 27 -27 49 -55 49 -63 0 -7 7
-35 16 -61 12 -36 41 -74 110 -147 52 -55 103 -117 114 -139 15 -29 27 -40 43
-40 33 0 118 -43 150 -76 36 -36 54 -70 67 -129 9 -42 8 -48 -10 -63 -13 -11
-24 -36 -29 -71 -7 -43 -15 -58 -40 -78 -56 -44 -65 -101 -66 -393 0 -247 -1
-256 -24 -303 -33 -68 -80 -97 -156 -97 -33 0 -105 -11 -160 -25 -61 -16 -123
-25 -160 -24 -39 2 -71 -4 -92 -14 -18 -10 -45 -17 -61 -17 -16 0 -41 -9 -55
-20 -31 -25 -32 -25 -58 1 -22 22 -55 23 -170 3 -41 -7 -69 13 -69 51 0 23 -1
23 -79 18 -98 -7 -150 5 -316 72 -127 51 -173 67 -227 79 -17 4 -28 14 -30 28
-2 17 -15 26 -58 38 -79 24 -105 39 -216 129 -103 85 -164 115 -253 127 -38 5
-51 11 -51 23 0 31 -42 87 -133 176 -55 53 -100 107 -111 132 -17 39 -18 44
-2 83 33 82 15 196 -39 246 -14 13 -25 33 -25 45 0 50 -43 110 -146 206 l-105
97 7 76 c5 58 3 84 -10 114 l-16 39 32 37 c28 33 39 38 76 39 31 1 58 11 96
35 98 63 126 122 107 228 -17 102 -15 139 10 145 18 5 20 11 15 44 -5 34 -4
39 14 39 11 0 49 -12 84 -26 l64 -27 64 47 c35 25 99 78 143 117 111 97 184
132 286 135 44 2 87 8 97 13 23 14 15 16 87 -25z" fill="#d54401ff" stroke-linecap="round" stroke="#d54401ff" stroke-width="19"/>
</g>
</g>
</svg>
